<svg xmlns="http://www.w3.org/2000/svg" width="512" height="512" aria-labelledby="title desc" role="img" viewBox="0 0 512 512"><title id="title">Apple Music logo</title><desc id="desc">A clean Apple Music style badge for GetOTTs product cards.</desc><defs><linearGradient id="bg" x1="86" x2="438" y1="58" y2="450" gradientUnits="userSpaceOnUse"><stop offset="0" stop-color="#ff3b6b"/><stop offset=".48" stop-color="#f43f5e"/><stop offset="1" stop-color="#7c3aed"/></linearGradient><filter id="shadow" width="140%" height="140%" x="-20%" y="-20%" color-interpolation-filters="sRGB"><feDropShadow dx="0" dy="18" flood-color="#020617" flood-opacity=".35" stdDeviation="18"/></filter></defs><rect width="416" height="416" x="48" y="48" fill="url(#bg)" filter="url(#shadow)" rx="98"/><path fill="#fff" d="M320 136v184c0 37-31 66-73 66-34 0-60-19-60-45 0-28 30-49 65-49 14 0 26 3 36 9V188l-112 22v134c0 37-31 66-73 66-34 0-60-19-60-45 0-28 30-49 65-49 14 0 26 3 36 9V174c0-14 9-25 23-28l134-27c10-2 19 6 19 17Z"/><text x="256" y="438" fill="#fff" font-family="Arial, Helvetica, sans-serif" font-size="42" font-weight="800" letter-spacing="1" text-anchor="middle">Music</text></svg>